# xmcd
#
# Track frame offsets:
#	150
#	18333
#	34649
#	50223
#	69503
#	89833
#	103678
#	119393
#	151713
#	172760
#	185825
#
# Disc length: 2711 seconds
#
# Revision: 0
# Processed by: cddbd v1.5.2PL0 Copyright (c) Steve Scherf et al.
# Submitted via: FairStars CD Ripper 1.90
#
DISCID=8f0a950b
DTITLE=Greensky Bluegrass - Shouted, Written Down and Shouted
DYEAR=2016
DGENRE=Bluegrass
TTITLE0=Miss September
TTITLE1=Past My Prime
TTITLE2=While Waiting
TTITLE3=Run or Die
TTITLE4=Room Without a Roof
TTITLE5=Hold On
TTITLE6=Merely Avoiding
TTITLE7=Living Over
TTITLE8=More of Me
TTITLE9=Fixin' to Ruin
TTITLE10=Take Cover
EXTD=
EXTT0=
EXTT1=
EXTT2=
EXTT3=
EXTT4=
EXTT5=
EXTT6=
EXTT7=
EXTT8=
EXTT9=
EXTT10=
PLAYORDER=
